<svg width="133" height="40" viewBox="0 0 133 40" fill="none" xmlns="http://www.w3.org/2000/svg">
<g clip-path="url(#clip0_3_876)">
<path d="M82.1991 31.2489C74.5069 36.9186 63.3575 39.9436 53.7581 39.9436C40.2982 39.9436 28.1809 34.9653 19.0136 26.6854C18.2934 26.0343 18.9387 25.147 19.803 25.654C29.6962 31.4102 41.9289 34.8731 54.5648 34.8731C63.0867 34.8731 72.4614 33.11 81.0813 29.4511C82.3835 28.898 83.4725 30.3039 82.1991 31.2489Z" fill="#FF9900"/>
<path d="M85.397 27.5907C84.4175 26.3346 78.8976 26.9973 76.4199 27.2911C75.6651 27.3833 75.5499 26.7265 76.2298 26.254C80.6261 23.1598 87.8401 24.0529 88.6813 25.0901C89.5226 26.133 88.4624 33.3642 84.3311 36.8156C83.6973 37.3457 83.0923 37.0634 83.3746 36.3604C84.3023 34.0441 86.3823 28.8526 85.397 27.5907Z" fill="#FF9900"/>
<path d="M76.593 4.40991V1.40218C76.593 0.946984 76.9387 0.641602 77.3536 0.641602H90.8192C91.2514 0.641602 91.5971 0.952747 91.5971 1.40218V3.97777C91.5913 4.40991 91.2283 4.97458 90.583 5.86768L83.6053 15.8301C86.1982 15.7667 88.9351 16.1528 91.286 17.478C91.8161 17.7776 91.9601 18.2155 92.0004 18.6477V21.8571C92.0004 22.295 91.5164 22.8078 91.0094 22.5427C86.8665 20.3705 81.3639 20.1343 76.7831 22.5658C76.3164 22.8193 75.8267 22.3123 75.8267 21.8744V18.8263C75.8267 18.3365 75.8324 17.501 76.3222 16.7578L84.4062 5.16473H77.3709C76.9387 5.16473 76.593 4.85935 76.593 4.40991Z" fill="#221F1F"/>
<path d="M27.4721 23.1769H23.3753C22.9835 23.1481 22.6724 22.8542 22.6436 22.4797V1.45435C22.6436 1.03373 22.995 0.69953 23.4329 0.69953H27.2531C27.6507 0.716804 27.9676 1.0222 27.9964 1.40249V4.15094H28.0713C29.0681 1.49468 30.9408 0.255859 33.4645 0.255859C36.0285 0.255859 37.6304 1.49468 38.7828 4.15094C39.7738 1.49468 42.0267 0.255859 44.441 0.255859C46.158 0.255859 48.0364 0.964578 49.1831 2.55487C50.4795 4.32379 50.2145 6.89362 50.2145 9.14654L50.2087 22.4163C50.2087 22.8369 49.8572 23.1769 49.4193 23.1769H45.3283C44.9192 23.1481 44.5908 22.8196 44.5908 22.4163V11.2727C44.5908 10.3854 44.6715 8.17277 44.4756 7.33153C44.1702 5.91985 43.254 5.52227 42.0671 5.52227C41.076 5.52227 40.0389 6.1849 39.6182 7.2451C39.1976 8.3053 39.238 10.08 39.238 11.2727V22.4163C39.238 22.8369 38.8865 23.1769 38.4486 23.1769H34.3576C33.9427 23.1481 33.6201 22.8196 33.6201 22.4163L33.6143 11.2727C33.6143 8.92759 34.0003 5.47618 31.0906 5.47618C28.1462 5.47618 28.2614 8.84115 28.2614 11.2727V22.4163C28.2614 22.8369 27.91 23.1769 27.4721 23.1769Z" fill="#221F1F"/>
<path d="M103.19 0.255859C109.269 0.255859 112.559 5.47618 112.559 12.1139C112.559 18.527 108.923 23.6148 103.19 23.6148C97.2204 23.6148 93.9707 18.3945 93.9707 11.8892C93.9707 5.34366 97.2608 0.255859 103.19 0.255859ZM103.224 4.54851C100.205 4.54851 100.015 8.66253 100.015 11.2266C100.015 13.7964 99.9747 19.2818 103.19 19.2818C106.365 19.2818 106.514 14.8566 106.514 12.16C106.514 10.3854 106.44 8.26496 105.904 6.58247C105.443 5.11894 104.527 4.54851 103.224 4.54851Z" fill="#221F1F"/>
<path d="M120.441 23.1769H116.362C115.953 23.1481 115.624 22.8196 115.624 22.4163L115.619 1.3852C115.653 0.99915 115.993 0.69953 116.408 0.69953H120.205C120.562 0.716804 120.856 0.958818 120.937 1.28725V4.50241H121.012C122.158 1.6272 123.766 0.255859 126.595 0.255859C128.433 0.255859 130.225 0.918484 131.378 2.73349C132.449 4.41598 132.449 7.2451 132.449 9.27906V22.5143C132.403 22.883 132.063 23.1769 131.66 23.1769H127.552C127.177 23.1481 126.866 22.8715 126.826 22.5143V11.0941C126.826 8.79506 127.091 5.43008 124.262 5.43008C123.265 5.43008 122.349 6.09847 121.893 7.11257C121.317 8.39749 121.242 9.67664 121.242 11.0941V22.4163C121.237 22.8369 120.879 23.1769 120.441 23.1769Z" fill="#221F1F"/>
<path d="M65.8584 13.1333V12.246C62.8967 12.246 59.768 12.8798 59.768 16.3715C59.768 18.1405 60.6842 19.3389 62.2572 19.3389C63.4096 19.3389 64.4409 18.6302 65.092 17.4778C65.8987 16.0604 65.8584 14.7294 65.8584 13.1333ZM69.9897 23.1188C69.7189 23.3608 69.3271 23.3781 69.0217 23.2167C67.6619 22.0874 67.4199 21.563 66.6708 20.4856C64.4237 22.7788 62.8334 23.4645 59.9178 23.4645C56.4722 23.4645 53.7871 21.3383 53.7871 17.0803C53.7871 13.7556 55.5906 11.4912 58.1547 10.3849C60.3788 9.40534 63.4845 9.23249 65.8584 8.96168V8.43158C65.8584 7.45781 65.9333 6.30542 65.3629 5.46418C64.8616 4.70936 63.9051 4.39822 63.0638 4.39822C61.5024 4.39822 60.108 5.19913 59.768 6.85857C59.6989 7.22733 59.4281 7.59033 59.0593 7.60762L55.0835 7.18123C54.7494 7.10633 54.3806 6.83552 54.4728 6.32271C55.3889 1.50572 59.7392 0.0537109 63.6343 0.0537109C65.6279 0.0537109 68.2323 0.58381 69.8053 2.09344C71.7989 3.95455 71.6088 6.43794 71.6088 9.1403V15.5245C71.6088 17.4433 72.4039 18.2845 73.153 19.3217C73.4181 19.6904 73.4757 20.1341 73.1415 20.4107C72.306 21.1079 70.8194 22.4043 70.0012 23.1303L69.9897 23.1188Z" fill="#221F1F"/>
<path d="M12.1514 13.1333V12.246C9.18971 12.246 6.06097 12.8798 6.06097 16.3715C6.06097 18.1405 6.97712 19.3389 8.55013 19.3389C9.70252 19.3389 10.7339 18.6302 11.385 17.4778C12.1917 16.0604 12.1514 14.7294 12.1514 13.1333ZM16.2827 23.1188C16.0119 23.3608 15.62 23.3781 15.3147 23.2167C13.9548 22.0874 13.7128 21.563 12.9638 20.4856C10.7166 22.7788 9.12633 23.4645 6.21078 23.4645C2.76514 23.4645 0.0800781 21.3383 0.0800781 17.0803C0.0800781 13.7556 1.88357 11.4912 4.44763 10.3849C6.67174 9.40534 9.77743 9.23249 12.1514 8.96168V8.43158C12.1514 7.45781 12.2263 6.30542 11.6558 5.46418C11.1545 4.70936 10.1981 4.39822 9.3568 4.39822C7.79532 4.39822 6.40093 5.19913 6.06097 6.85857C5.99183 7.22733 5.72102 7.59033 5.35226 7.60762L1.37652 7.18123C1.04232 7.10633 0.673557 6.83552 0.765748 6.32271C1.6819 1.50572 6.03216 0.0537109 9.92724 0.0537109C11.9209 0.0537109 14.5253 0.58381 16.0983 2.09344C18.0919 3.95455 17.9018 6.43794 17.9018 9.1403V15.5245C17.9018 17.4433 18.6969 18.2845 19.446 19.3217C19.711 19.6904 19.7686 20.1341 19.4344 20.4107C18.599 21.1079 17.1124 22.4043 16.2942 23.1303L16.2827 23.1188Z" fill="#221F1F"/>
</g>
<defs>
<clipPath id="clip0_3_876">
<rect width="132.527" height="40" fill="white"/>
</clipPath>
</defs>
</svg>
