<svg width="119" height="40" viewBox="0 0 119 40" fill="none" xmlns="http://www.w3.org/2000/svg">
<path d="M50.3259 20.5126C50.3259 26.0648 45.9824 30.1561 40.6519 30.1561C35.3215 30.1561 30.978 26.0648 30.978 20.5126C30.978 14.9213 35.3215 10.8691 40.6519 10.8691C45.9824 10.8691 50.3259 14.9213 50.3259 20.5126ZM46.0911 20.5126C46.0911 17.0431 43.5737 14.6691 40.6519 14.6691C37.7302 14.6691 35.2128 17.0431 35.2128 20.5126C35.2128 23.9474 37.7302 26.3561 40.6519 26.3561C43.5737 26.3561 46.0911 23.9431 46.0911 20.5126Z" fill="#EA4335"/>
<path d="M71.1955 20.5126C71.1955 26.0648 66.852 30.1561 61.5216 30.1561C56.1911 30.1561 51.8477 26.0648 51.8477 20.5126C51.8477 14.9257 56.1911 10.8691 61.5216 10.8691C66.852 10.8691 71.1955 14.9213 71.1955 20.5126ZM66.9607 20.5126C66.9607 17.0431 64.4433 14.6691 61.5216 14.6691C58.5998 14.6691 56.0824 17.0431 56.0824 20.5126C56.0824 23.9474 58.5998 26.3561 61.5216 26.3561C64.4433 26.3561 66.9607 23.9431 66.9607 20.5126Z" fill="#FF9900"/>
<path d="M91.1955 11.4517V28.7648C91.1955 35.8865 86.9955 38.7952 82.0302 38.7952C77.3563 38.7952 74.5433 35.6691 73.4824 33.1126L77.1694 31.5778C77.8259 33.1474 79.4346 34.9996 82.0259 34.9996C85.2042 34.9996 87.1737 33.0387 87.1737 29.3474V27.9604H87.0259C86.0781 29.13 84.252 30.1517 81.9476 30.1517C77.1259 30.1517 72.7085 25.9517 72.7085 20.5474C72.7085 15.1039 77.1259 10.8691 81.9476 10.8691C84.2476 10.8691 86.0737 11.8909 87.0259 13.0257H87.1737V11.4561H91.1955V11.4517ZM87.4737 20.5474C87.4737 17.1517 85.2085 14.6691 82.3259 14.6691C79.4042 14.6691 76.9563 17.1517 76.9563 20.5474C76.9563 23.9083 79.4042 26.3561 82.3259 26.3561C85.2085 26.3561 87.4737 23.9083 87.4737 20.5474Z" fill="#4285F4"/>
<path d="M97.8262 1.30469V29.5656H93.6958V1.30469H97.8262Z" fill="#34A853"/>
<path d="M113.922 23.687L117.209 25.8783C116.148 27.4478 113.591 30.1522 109.174 30.1522C103.696 30.1522 99.6045 25.9174 99.6045 20.5087C99.6045 14.7739 103.731 10.8652 108.7 10.8652C113.704 10.8652 116.152 14.8478 116.952 17L117.391 18.0957L104.5 23.4348C105.487 25.3696 107.022 26.3565 109.174 26.3565C111.331 26.3565 112.826 25.2957 113.922 23.687ZM103.804 20.2174L112.422 16.6391C111.948 15.4348 110.522 14.5957 108.844 14.5957C106.691 14.5957 103.696 16.4957 103.804 20.2174Z" fill="#EA4335"/>
<path d="M15.3437 18.0041V13.9128H29.1306C29.2654 14.6258 29.335 15.4693 29.335 16.3824C29.335 19.4519 28.4959 23.2476 25.7915 25.9519C23.1611 28.6911 19.8002 30.1519 15.348 30.1519C7.09587 30.1519 0.156738 23.4302 0.156738 15.178C0.156738 6.92584 7.09587 0.204102 15.348 0.204102C19.9133 0.204102 23.1654 1.99541 25.6089 4.33019L22.722 7.21715C20.9698 5.57367 18.5959 4.29541 15.3437 4.29541C9.31761 4.29541 4.60456 9.15193 4.60456 15.178C4.60456 21.2041 9.31761 26.0606 15.3437 26.0606C19.2524 26.0606 21.4785 24.4911 22.9046 23.065C24.0611 21.9084 24.822 20.2563 25.122 17.9998L15.3437 18.0041Z" fill="#4285F4"/>
</svg>
